<svg width="22" height="22" viewBox="0 0 16 16" fill="none" xmlns="http://www.w3.org/2000/svg">
                                                        <path d="M16 8C16 6 15.2676 4.14085 13.9437 2.64789L13.662 2.3662L13.3803 2.08451C11.9718 0.788733 10.169 0.056338 8.22535 0C8.19718 0 8.16901 0 8.14085 0H8.11268C8.08451 0 8.05634 0 8 0C6.05634 0 4.22535 0.704225 2.76056 1.97183L2.47887 2.25352L2.19718 2.53521C0.760563 4 0 5.94366 0 8C0 10.0563 0.760563 12 2.16901 13.493L2.47887 13.7746L2.76056 14.0282C4.22535 15.2958 6.05634 16 8 16C8.02817 16 8.08451 16 8.11268 16H8.14085C8.16901 16 8.19718 16 8.19718 16C10.0563 15.9437 11.831 15.2676 13.2394 14.0282L13.5211 13.7746L13.831 13.493C15.2394 12 16 10.0563 16 8ZM12.8732 12.6479C12.7887 12.5915 12.7324 12.5352 12.6479 12.4789C12.6197 12.4507 12.5634 12.4225 12.5352 12.3944C12.4789 12.338 12.3944 12.3099 12.338 12.2535C12.3099 12.2254 12.2535 12.1972 12.2254 12.169C12.169 12.1408 12.1127 12.0845 12.0282 12.0563C11.9718 12.0282 11.9437 12 11.8873 11.9718C11.831 11.9437 11.7746 11.9155 11.6901 11.8592C11.6338 11.831 11.6056 11.8028 11.5493 11.7746C11.493 11.7465 11.4366 11.7183 11.3521 11.6901C11.2958 11.662 11.2676 11.6338 11.2113 11.6338C11.1549 11.6056 11.0986 11.5775 11.0141 11.5493C10.9577 11.5211 10.9014 11.5211 10.8732 11.493C10.8169 11.4648 10.7324 11.4366 10.6761 11.4085C10.6197 11.3803 10.5916 11.3803 10.5352 11.3521C10.6761 10.3944 10.7606 9.38028 10.7606 8.33803H15.2113C15.0986 10.1127 14.4225 11.6901 13.2394 12.9577C13.1549 12.8732 13.0423 12.7887 12.9577 12.7324C12.9296 12.6761 12.9014 12.6761 12.8732 12.6479ZM8.11268 15.2113C7.6338 15.1549 7.01408 13.9437 6.61972 11.9155C6.64789 11.9155 6.67606 11.9155 6.70423 11.8873C6.73239 11.8873 6.76056 11.8873 6.78873 11.8873C6.98592 11.8592 7.15493 11.831 7.35211 11.8028C7.38028 11.8028 7.38028 11.8028 7.40845 11.8028C7.60563 11.7746 7.80282 11.7746 8 11.7746C8.19718 11.7746 8.39437 11.7746 8.59155 11.8028C8.61972 11.8028 8.61972 11.8028 8.64789 11.8028C8.84507 11.831 9.01409 11.8592 9.21127 11.8873C9.23944 11.8873 9.26761 11.8873 9.29578 11.8873C9.40845 11.9155 9.52113 11.9437 9.6338 11.9718C9.26761 13.9155 8.67606 15.0704 8.19718 15.1831C8.19718 15.2113 8.14084 15.2113 8.11268 15.2113ZM3.12676 12.6479C3.09859 12.6761 3.07042 12.6761 3.04225 12.7042C2.95775 12.7887 2.84507 12.8732 2.76056 12.9296C1.57747 11.6901 0.901408 10.0845 0.816901 8.39437H5.49296C5.52113 9.38028 5.57746 10.3944 5.71831 11.3239C5.69014 11.3239 5.66197 11.3521 5.66197 11.3521C5.60563 11.3803 5.52113 11.3803 5.46479 11.4085C5.40845 11.4366 5.35211 11.4366 5.32394 11.4648C5.26761 11.493 5.1831 11.5211 5.12676 11.5493C5.07042 11.5775 5.01408 11.5775 4.98592 11.6056C4.92958 11.6338 4.84507 11.662 4.78873 11.6901C4.73239 11.7183 4.70423 11.7465 4.64789 11.7465C4.59155 11.7746 4.53521 11.8028 4.4507 11.831C4.39437 11.8592 4.3662 11.8873 4.30986 11.9155C4.25352 11.9437 4.19718 11.9718 4.11268 12.0282C4.05634 12.0563 4.02817 12.0845 3.97183 12.1127C3.91549 12.1408 3.85915 12.1972 3.77465 12.2254C3.74648 12.2535 3.69014 12.2817 3.66197 12.3099C3.60563 12.3662 3.52113 12.3944 3.46479 12.4507C3.43662 12.4789 3.38028 12.507 3.35211 12.5352C3.26761 12.5352 3.21127 12.5915 3.12676 12.6479ZM2.76056 3.09859C2.84507 3.1831 2.92958 3.26761 3.04225 3.32394C3.07042 3.35211 3.12676 3.38028 3.15493 3.40845C3.21127 3.46479 3.26761 3.52113 3.35211 3.5493C3.40845 3.57746 3.43662 3.60563 3.49296 3.6338C3.5493 3.69014 3.60563 3.71831 3.66197 3.77465C3.71831 3.80282 3.74648 3.83099 3.80282 3.85915C3.85916 3.88732 3.91549 3.94366 3.97183 3.97183C4.02817 4 4.08451 4.02817 4.11268 4.05634C4.16901 4.08451 4.22535 4.11268 4.28169 4.16901C4.33803 4.19718 4.39437 4.22535 4.4507 4.25352C4.50704 4.28169 4.56338 4.30986 4.61972 4.33803C4.67606 4.3662 4.73239 4.39437 4.78873 4.42254C4.84507 4.4507 4.90141 4.47887 4.98592 4.50704C5.04225 4.53521 5.09859 4.56338 5.15493 4.56338C5.21127 4.59155 5.26761 4.61972 5.35211 4.64789C5.40845 4.67606 5.46479 4.67606 5.52113 4.70423C5.57747 4.73239 5.66197 4.76056 5.71831 4.76056C5.60563 5.66197 5.52113 6.61972 5.52113 7.57747H0.816901C0.901408 5.91549 1.57747 4.30986 2.76056 3.09859ZM8.22535 0.816901C8.73239 0.929578 9.32394 2.16901 9.69014 4.19718C9.60563 4.22535 9.52113 4.22535 9.46479 4.25352C9.43662 4.25352 9.40845 4.25352 9.38028 4.25352C9.1831 4.28169 9.01408 4.30986 8.8169 4.33803C8.78873 4.33803 8.78873 4.33803 8.76056 4.33803C8.56338 4.3662 8.3662 4.3662 8.16901 4.3662C7.94366 4.3662 7.74648 4.3662 7.5493 4.33803C7.52113 4.33803 7.52113 4.33803 7.49296 4.33803C7.29577 4.30986 7.09859 4.28169 6.90141 4.25352C6.87324 4.25352 6.84507 4.25352 6.8169 4.22535C6.76056 4.22535 6.70423 4.19718 6.61972 4.16901C6.98592 2.08451 7.6338 0.84507 8.11268 0.788732C8.14084 0.816901 8.19718 0.816901 8.22535 0.816901ZM13.0423 3.49296C13.0704 3.46479 13.0704 3.46479 13.0986 3.43662C13.1831 3.35211 13.2958 3.29577 13.3803 3.21127C14.4789 4.42254 15.0986 5.97183 15.1831 7.60563H10.7887C10.7606 6.64789 10.7042 5.69014 10.5915 4.78873C10.6197 4.78873 10.6479 4.76056 10.7042 4.76056C10.7606 4.73239 10.8169 4.73239 10.8732 4.70423C10.9296 4.67606 10.9859 4.64789 11.0704 4.61972C11.1268 4.59155 11.1831 4.59155 11.2113 4.56338C11.2676 4.53521 11.3239 4.50704 11.4085 4.47887C11.4648 4.4507 11.5211 4.42254 11.5493 4.42254C11.6056 4.39437 11.662 4.3662 11.7465 4.33803C11.8028 4.30986 11.831 4.28169 11.8873 4.25352C11.9437 4.22535 12 4.19718 12.0845 4.14085C12.1408 4.11268 12.169 4.08451 12.2254 4.05634C12.2817 4.02817 12.338 3.97183 12.4225 3.94366C12.4507 3.91549 12.507 3.88732 12.5352 3.85915C12.5915 3.80282 12.6761 3.77465 12.7324 3.71831C12.7606 3.69014 12.8169 3.66197 12.8451 3.6338C12.8732 3.60563 12.9577 3.5493 13.0423 3.49296ZM9.6338 11.1549C9.57747 11.1549 9.52113 11.1268 9.46479 11.1268C9.40845 11.1268 9.32394 11.0986 9.23944 11.0986C9.1831 11.0986 9.12676 11.0704 9.09859 11.0704C9.01408 11.0704 8.95775 11.0423 8.87324 11.0423C8.8169 11.0423 8.78873 11.0423 8.73239 11.0141C8.64789 11.0141 8.56338 11.0141 8.47887 10.9859C8.4507 10.9859 8.39437 10.9859 8.3662 10.9859C8.25352 10.9859 8.11268 10.9859 8 10.9859C7.88732 10.9859 7.74648 10.9859 7.6338 10.9859C7.60563 10.9859 7.5493 10.9859 7.52113 10.9859C7.43662 10.9859 7.35211 10.9859 7.26761 11.0141C7.21127 11.0141 7.1831 11.0141 7.12676 11.0423C7.04225 11.0423 6.98592 11.0704 6.90141 11.0704C6.84507 11.0704 6.78873 11.0986 6.76056 11.0986C6.67606 11.0986 6.61972 11.1268 6.53521 11.1268H6.50704C6.39437 10.3099 6.30986 9.40845 6.30986 8.39437H10C9.97183 9.40845 9.91549 10.338 9.80282 11.1831C9.74648 11.1831 9.69014 11.1549 9.6338 11.1549ZM6.28169 7.60563C6.30986 6.64789 6.3662 5.77465 6.47887 4.98592C6.53521 4.98592 6.56338 5.01408 6.61972 5.01408C6.70423 5.01408 6.76056 5.04225 6.84507 5.04225C6.90141 5.04225 6.95775 5.07042 7.01408 5.07042C7.09859 5.07042 7.15493 5.09859 7.23944 5.09859C7.29577 5.09859 7.35211 5.09859 7.38028 5.12676C7.46479 5.12676 7.5493 5.12676 7.6338 5.15493C7.69014 5.15493 7.71831 5.15493 7.77465 5.15493C7.91549 5.15493 8.02817 5.15493 8.16901 5.15493C8.28169 5.15493 8.42254 5.15493 8.53521 5.15493C8.56338 5.15493 8.61972 5.15493 8.64789 5.15493C8.7324 5.15493 8.8169 5.15493 8.90141 5.12676C8.95775 5.12676 8.98592 5.12676 9.04225 5.09859C9.12676 5.09859 9.1831 5.07042 9.26761 5.07042C9.32395 5.07042 9.38028 5.04225 9.43662 5.04225C9.49296 5.04225 9.57747 5.01408 9.6338 5.01408C9.69014 5.01408 9.74648 4.98592 9.80282 4.98592H9.83099C9.94366 5.77465 10 6.64789 10.0282 7.60563H6.28169ZM12.7887 2.67606C12.6479 2.8169 12.4789 2.92958 12.338 3.04225C12.338 3.04225 12.338 3.04225 12.3099 3.04225C12.1408 3.15493 11.9718 3.26761 11.8028 3.35211L11.7746 3.38028C11.6056 3.46479 11.4366 3.57747 11.2676 3.66197C11.2394 3.66197 11.2113 3.69014 11.2113 3.69014C11.0423 3.77465 10.8732 3.83099 10.7042 3.91549C10.6761 3.91549 10.6479 3.94366 10.6197 3.94366C10.5634 3.97183 10.5352 3.97183 10.4789 4C10.2535 2.76056 9.91549 1.69014 9.49296 0.985916C10.7324 1.23944 11.8873 1.80282 12.8451 2.67606C12.8169 2.64789 12.7887 2.64789 12.7887 2.67606ZM5.83099 3.97183C5.74648 3.94366 5.69014 3.91549 5.60563 3.88732C5.57746 3.88732 5.5493 3.85915 5.52113 3.85915C5.35211 3.80282 5.15493 3.71831 4.98592 3.6338C4.95775 3.6338 4.92958 3.60563 4.90141 3.60563C4.73239 3.52113 4.56338 3.43662 4.39437 3.32394C4.3662 3.32394 4.3662 3.29577 4.33803 3.29577C4.16901 3.1831 4 3.07042 3.83099 2.95775C3.69014 2.8169 3.52113 2.67606 3.35211 2.53521L3.32394 2.50704C4.33803 1.6338 5.5493 1.09859 6.84507 0.873239C6.39437 1.60563 6.05634 2.70423 5.83099 3.97183ZM3.38028 13.4648C3.52113 13.3521 3.69014 13.2113 3.83099 13.0986C3.83099 13.0986 3.85915 13.0986 3.85915 13.0704C4.02817 12.9577 4.16901 12.8451 4.33803 12.7606C4.33803 12.7606 4.3662 12.7606 4.3662 12.7324C4.53521 12.6479 4.70423 12.5352 4.87324 12.4507C4.90141 12.4507 4.92958 12.4225 4.92958 12.4225C5.09859 12.338 5.26761 12.2817 5.43662 12.1972C5.46479 12.1972 5.49296 12.169 5.52113 12.169C5.60563 12.1408 5.71831 12.1127 5.80282 12.0845C6.02817 13.3239 6.3662 14.3662 6.8169 15.0704C5.52113 14.8732 4.30986 14.3099 3.29577 13.4648C3.35211 13.493 3.38028 13.493 3.38028 13.4648ZM10.4225 12.1972C10.4507 12.1972 10.4507 12.1972 10.4225 12.1972C10.4789 12.2254 10.507 12.2254 10.5352 12.2254C10.7042 12.2817 10.8732 12.3662 11.0423 12.4507C11.0704 12.4507 11.0986 12.4789 11.0986 12.4789C11.2676 12.5634 11.4366 12.6479 11.6056 12.7606C11.6056 12.7606 11.6338 12.7606 11.6338 12.7887C11.8028 12.8732 11.9718 12.9859 12.1127 13.0986C12.1127 13.0986 12.1408 13.0986 12.1408 13.1268C12.3099 13.2394 12.4507 13.3521 12.5915 13.493L12.6197 13.5211C11.6901 14.3099 10.5915 14.8451 9.43662 15.0704C9.88732 14.3662 10.2254 13.3803 10.4225 12.1972Z" fill="url(#icone-internet-gradient)"></path>
                                                        <defs>
                                                            <linearGradient id="icone-internet-gradient" x1="0" y1="0" x2="16" y2="0" gradientUnits="userSpaceOnUse">
                                                                <stop offset="0.166667" stop-color="var(--color-stop-1)"></stop>
                                                                <stop offset="0.953125" stop-color="var(--color-stop-2)"></stop>
                                                            </linearGradient>
                                                        </defs>
                                                    </svg>