<svg class="icon" version="1.1" id="Camada_1" xmlns="http://www.w3.org/2000/svg" xmlns:xlink="http://www.w3.org/1999/xlink" x="0px" y="0px" viewBox="0 0 44 44" style="enable-background:new 0 0 44 44;" xml:space="preserve">
                                                    <style type="text/css">
                                                        .st0 {
                                                            fill: url(#SVGTiktok);
                                                        }

                                                        .st1 {
                                                            fill: #FFFFFF;
                                                        }
</style>
                                                    <linearGradient id="SVGTiktok" gradientUnits="userSpaceOnUse" x1="1" y1="21.9843" x2="43" y2="21.9843" gradientTransform="matrix(1 0 0 -1 0 43.9844)">
                                                    <stop offset="0" style="stop-color: var(--color-stop-1)"></stop>
                                                    <stop offset="1" style="stop-color: var(--color-stop-2) "></stop>
                                                </linearGradient>
                                                    <circle class="st0" cx="22" cy="22" r="21"></circle>
                                                    <path class="st1" d="M19.3,32.9c3.7,0,6.7-3,6.7-6.7v-9c1.1,1.6,2.9,2.6,4.9,2.6c0.2,0,0.4,0,0.5,0h0v-3.6c-2.8-0.2-5.1-2.4-5.4-5.2

                                                    h-3.1l0,15.3c0,1.9-1.7,3.4-3.5,3.4c-1.9,0-3.4-1.5-3.4-3.4c0-1.9,1.5-3.4,3.4-3.4c0.1,0,0.3,0,0.4,0v-3.3c-0.1,0-0.3,0-0.4,0

                                                    c-3.7,0-6.7,3-6.7,6.7S15.6,32.9,19.3,32.9z"></path>
                                                </svg>