<svg class="icon" version="1.1" id="Camada_1" xmlns="http://www.w3.org/2000/svg" xmlns:xlink="http://www.w3.org/1999/xlink" x="0px" y="0px" viewBox="0 0 44 44" style="enable-background:new 0 0 44 44;" xml:space="preserve">
                                                    <style type="text/css">
                                                        .st0 {
                                                            fill: url(#SVGLinkedin);
                                                        }

                                                        .st1 {
                                                            fill: #FFFFFF;
                                                        }
</style>
                                                    <linearGradient id="SVGLinkedin" gradientUnits="userSpaceOnUse" x1="1" y1="22" x2="43" y2="22">
                                                    <stop offset="0" style="stop-color: var(--color-stop-1)"></stop>
                                                    <stop offset="1" style="stop-color: var(--color-stop-2) "></stop>
                                                </linearGradient>
                                                    <circle class="st0" cx="22" cy="22" r="21"></circle>
                                                    <path class="st1" d="M17.7,28.8H14V18.3h3.7V28.8z M15.7,16.4c-1.1,0-1.9-0.8-1.9-1.8c0-1,0.8-1.8,2-1.8c1.1,0,1.9,0.8,1.9,1.8

                                                    C17.8,15.6,17,16.4,15.7,16.4z M30.9,28.8h-3.6v-5.7c0-1.6-1-1.9-1.3-1.9c-0.4,0-1.6,0.2-1.6,1.9c0,0.2,0,5.7,0,5.7h-3.7V18.3h3.7
	                                                v1.5c0.5-0.9,1.4-1.5,3.2-1.5c1.8,0,3.2,1.5,3.2,4.8V28.8z"></path>
                                                </svg>