<svg width="22" height="22" viewBox="0 0 16 16" fill="none" xmlns="http://www.w3.org/2000/svg">
                                                    <path d="M15.8642 15.2122L11.056 10.4041C12.0068 9.29032 12.5772 7.87776 12.5772 6.30221C12.5772 2.82513 9.75212 0 6.30221 0C2.82513 0 0 2.82513 0 6.30221C0 9.77929 2.82513 12.6044 6.30221 12.6044C7.87776 12.6044 9.31749 12.034 10.4041 11.0832L15.2122 15.8642C15.2937 15.9457 15.4295 16 15.5382 16C15.6469 16 15.7827 15.9457 15.8642 15.8642C16.0543 15.674 16.0543 15.4024 15.8642 15.2122ZM0.923599 6.30221C0.923599 3.34126 3.34126 0.923599 6.30221 0.923599C9.26316 0.923599 11.6808 3.34126 11.6808 6.30221C11.6808 9.26316 9.26316 11.6808 6.30221 11.6808C3.34126 11.6537 0.923599 9.26316 0.923599 6.30221Z" fill="url(#icone-busca-gradient-desktop2)"></path>
                                                    <defs>
                                                        <linearGradient id="icone-busca-gradient-desktop2" x1="0" y1="0" x2="16.0068" y2="0" gradientUnits="userSpaceOnUse">
                                                            <stop offset="0.166667" stop-color="var(--color-stop-1)"></stop>
                                                            <stop offset="0.953125" stop-color="var(--color-stop-2)"></stop>
                                                        </linearGradient>
                                                    </defs>
                                                </svg>