<svg class="icon" version="1.1" id="Camada_1" xmlns="http://www.w3.org/2000/svg" xmlns:xlink="http://www.w3.org/1999/xlink" x="0px" y="0px" viewBox="0 0 44 44" style="enable-background:new 0 0 44 44;" xml:space="preserve">
                                                    <style type="text/css">
                                                        .st0 {
                                                            fill: url(#SVGTInstagram);
                                                        }

                                                        .st-instagram {
                                                            fill: none;
                                                            stroke: #FFFFFF;
                                                            stroke-width: 1.2898;
                                                        }

                                                        .st2 {
                                                            fill: #FFFFFF;
                                                        }
</style>
                                                    <linearGradient id="SVGTInstagram" gradientUnits="userSpaceOnUse" x1="1" y1="22" x2="43" y2="22">
                                                    <stop offset="0" style="stop-color: var(--color-stop-1)"></stop>
                                                    <stop offset="1" style="stop-color: var(--color-stop-2) "></stop>
                                                </linearGradient>
                                                    <circle class="st0" cx="22" cy="22" r="21"></circle>
                                                    <path class="st-instagram" d="M18.5,22.7c0-1.9,1.5-3.4,3.4-3.4l0,0c1.9,0,3.4,1.5,3.4,3.4c0,1.9-1.5,3.4-3.4,3.4

                                                    C20,26.1,18.5,24.5,18.5,22.7z"></path>
                                                    <circle class="st2" cx="26" cy="18.2" r="0.8"></circle>
                                                    <path class="st-instagram" d="M27.6,29.5H16.4c-1.1,0-1.9-0.9-1.9-1.9V16.4c0-1.1,0.9-1.9,1.9-1.9h11.1c1.1,0,1.9,0.9,1.9,1.9v11.1

                                                    C29.5,28.6,28.6,29.5,27.6,29.5z"></path>
                                                </svg>