<svg class="icon" version="1.1" id="Camada_1" xmlns="http://www.w3.org/2000/svg" xmlns:xlink="http://www.w3.org/1999/xlink" x="0px" y="0px" viewBox="0 0 44 44" style="enable-background:new 0 0 44 44;" xml:space="preserve">
                                                    <style type="text/css">
                                                        .st0 {
                                                            fill: url(#SVGTwitter);
                                                        }

                                                        .st1 {
                                                            fill-rule: evenodd;
                                                            clip-rule: evenodd;
                                                            fill: #FFFFFF;
                                                        }
</style>
                                                    <linearGradient id="SVGTwitter" gradientUnits="userSpaceOnUse" x1="1" y1="22" x2="43" y2="22">
                                                    <stop offset="0" style="stop-color: var(--color-stop-1)"></stop>
                                                    <stop offset="1" style="stop-color: var(--color-stop-2)"></stop>
                                                    </linearGradient>
                                                    <circle class="st0" cx="22" cy="22" r="21"></circle>
                                                    <path class="st1" d="M22.8,20.8l0-0.6c-0.1-1.5,0.8-2.8,2.2-3.3c0.5-0.2,1.4-0.2,2,0c0.2,0.1,0.7,0.3,1,0.5l0.6,0.4l0.6-0.2

                                                        c0.3-0.1,0.8-0.3,1-0.4c0.2-0.1,0.4-0.2,0.4-0.1c0,0.2-0.4,0.9-0.8,1.2c-0.5,0.5-0.3,0.6,0.6,0.2c0.6-0.2,0.6-0.2,0.5,0

                                                        c-0.1,0.1-0.4,0.5-0.8,0.9c-0.6,0.6-0.7,0.7-0.7,1.2c0,0.8-0.4,2.5-0.8,3.5c-0.7,1.8-2.3,3.6-3.8,4.5c-2.2,1.3-5.1,1.6-7.5,0.9

                                                        c-0.8-0.3-2.2-0.9-2.2-1c0,0,0.4-0.1,0.9-0.1c1.1,0,2.2-0.3,3.1-0.9l0.6-0.4L19,26.9c-1-0.3-1.9-1.1-2.1-1.9c-0.1-0.2,0-0.3,0.6-0.3

                                                        l0.7,0l-0.6-0.3c-0.7-0.3-1.3-0.9-1.6-1.5c-0.2-0.4-0.5-1.5-0.4-1.5c0,0,0.3,0,0.5,0.1c0.8,0.3,0.9,0.2,0.4-0.3

                                                        c-0.9-0.9-1.1-2.2-0.7-3.4l0.2-0.6l0.8,0.8c1.5,1.5,3.4,2.4,5.4,2.7L22.8,20.8z"></path>
                                                </svg>