<svg class="alumni-login-button" width="39" height="39" viewBox="0 0 39 39" fill="none" xmlns="http://www.w3.org/2000/svg">
                                                <g clip-path="url(#alumni-login0_288_462)">
                                                    <path d="M19.5 0C8.72782 0 0 8.72782 0 19.5C0 30.2722 8.72782 39 19.5 39C30.2722 39 39 30.2722 39 19.5C39 8.72782 30.2722 0 19.5 0ZM19.5 7.54839C23.3214 7.54839
                                              26.4194 10.6464 26.4194 14.4677C26.4194 18.2891 23.3214 21.3871 19.5 21.3871C15.6786 21.3871 12.5806 18.2891 12.5806 14.4677C12.5806 10.6464 15.6786 7.54839
                                              19.5 7.54839ZM19.5 34.5968C14.8845 34.5968 10.7486 32.5052 7.98085 29.2343C9.45907 26.4508 12.3526 24.5323 15.7258 24.5323C15.9145 24.5323 16.1032 24.5637
                                              16.2841 24.6187C17.3062 24.949 18.3756 25.1613 19.5 25.1613C20.6244 25.1613 21.7016 24.949 22.7159 24.6187C22.8968 24.5637 23.0855 24.5323 23.2742
                                              24.5323C26.6474 24.5323 29.5409 26.4508 31.0192 29.2343C28.2514 32.5052 24.1155 34.5968 19.5 34.5968Z" fill="url(#icone-internet-gradient-alumni)"></path>
                                                </g>
                                                <defs>
                                                    <linearGradient id="icone-internet-gradient-alumni" x1="0" y1="19.5" x2="39" y2="19.5" gradientUnits="userSpaceOnUse">
                                                        <stop offset="0.166667" stop-color="var(--color-stop-1)"></stop>
                                                        <stop offset="0.953125" stop-color="var(--color-stop-2)"></stop>
                                                    </linearGradient>
                                                    <clipPath id="alumni-login0_288_462">
                                                        <rect width="39" height="39" fill="white"></rect>
                                                    </clipPath>
                                                </defs>
                                            </svg>